<svg width="49" height="48" viewBox="0 0 49 48" fill="none" xmlns="http://www.w3.org/2000/svg">
<path d="M24.1396 39.12C18.8896 39.12 14.2486 36.432 11.5396 32.4C11.6026 28.2 19.9396 25.89 24.1396 25.89C28.3396 25.89 36.6766 28.2 36.7396 32.4C35.3513 34.4673 33.4759 36.1614 31.2787 37.3333C29.0815 38.5051 26.6298 39.1187 24.1396 39.12ZM24.1396 9.3C25.8105 9.3 27.4129 9.96375 28.5944 11.1452C29.7759 12.3267 30.4396 13.9291 30.4396 15.6C30.4396 17.2709 29.7759 18.8733 28.5944 20.0548C27.4129 21.2363 25.8105 21.9 24.1396 21.9C22.4688 21.9 20.8664 21.2363 19.6849 20.0548C18.5034 18.8733 17.8396 17.2709 17.8396 15.6C17.8396 13.9291 18.5034 12.3267 19.6849 11.1452C20.8664 9.96375 22.4688 9.3 24.1396 9.3ZM24.1396 3C21.3819 3 18.6511 3.54318 16.1033 4.59853C13.5555 5.65388 11.2404 7.20073 9.29041 9.15076C5.35214 13.089 3.13965 18.4305 3.13965 24C3.13965 29.5695 5.35214 34.911 9.29041 38.8492C11.2404 40.7993 13.5555 42.3461 16.1033 43.4015C18.6511 44.4568 21.3819 45 24.1396 45C29.7092 45 35.0506 42.7875 38.9889 38.8492C42.9272 34.911 45.1396 29.5695 45.1396 24C45.1396 12.387 35.6896 3 24.1396 3Z" fill="black"/>
</svg>
