<svg width="851" height="290" viewBox="0 0 851 290" fill="none" xmlns="http://www.w3.org/2000/svg">
<path opacity="0.6" d="M1.18344 33.4823C17.7194 13.7838 112.263 -4.86829 162.759 2.47673C213.254 9.82175 226.381 56.133 217.911 66.9871C213.888 74.4202 200.458 77.6858 194.613 70.5584C186.543 60.7165 191.813 51.9398 198.863 44.2917C208.839 33.4699 282.023 37.3118 325.828 62.4603C372.847 89.4546 409.163 133.764 386.348 178.944" stroke="black" stroke-dasharray="4 4"/>
<path opacity="0.6" d="M458.183 256.518C474.719 276.216 569.263 294.868 619.759 287.523C670.254 280.178 683.381 233.867 674.911 223.013C670.888 215.58 657.458 212.314 651.613 219.442C643.543 229.284 648.813 238.06 655.863 245.708C665.839 256.53 739.023 252.688 782.828 227.54C829.847 200.545 866.163 156.236 843.348 111.056" stroke="black" stroke-dasharray="4 4"/>
</svg>
